<?xml version="1.0" standalone="no"?>
<!DOCTYPE svg PUBLIC "-//W3C//DTD SVG 20010904//EN"
 "http://www.w3.org/TR/2001/REC-SVG-20010904/DTD/svg10.dtd">
<svg version="1.0" xmlns="http://www.w3.org/2000/svg"
 width="512.000000pt" height="512.000000pt" viewBox="0 0 512.000000 512.000000"
 preserveAspectRatio="xMidYMid meet">

<g transform="translate(0.000000,512.000000) scale(0.100000,-0.100000)"
fill="#000000" stroke="none">
<path d="M2325 5109 c-476 -46 -923 -220 -1315 -513 -108 -81 -370 -336 -452
-441 -214 -274 -375 -590 -463 -912 -121 -440 -125 -868 -13 -1316 l32 -129
100 -50 101 -51 170 48 170 49 210 208 211 208 173 -70 c95 -39 174 -70 176
-68 3 3 115 250 281 621 48 108 91 197 94 197 3 0 93 -213 202 -473 l196 -472
179 -107 c139 -83 180 -104 188 -94 6 7 78 142 160 299 l150 286 179 3 179 3
116 346 116 345 48 -20 c26 -11 46 -25 44 -30 -2 -6 -59 -176 -126 -378 l-123
-368 -183 0 -183 0 -168 -320 c-92 -176 -172 -320 -178 -320 -6 0 -117 63
-245 140 l-235 139 -157 377 c-87 207 -160 378 -162 380 -3 3 -165 -351 -291
-638 l-25 -57 -183 74 c-100 41 -189 75 -197 75 -9 0 -101 -85 -206 -190
l-190 -190 -201 -58 -201 -59 -66 34 c-37 18 -67 32 -67 30 0 -16 73 -176 131
-287 125 -239 246 -400 463 -615 259 -258 518 -429 843 -559 606 -242 1276
-246 1882 -10 l121 47 0 1378 0 1379 35 0 35 0 0 -1361 0 -1361 93 50 c224
119 386 241 583 437 220 218 339 377 467 625 167 319 256 627 287 986 6 71 10
167 8 213 l-3 83 -139 -311 c-76 -171 -141 -311 -145 -311 -3 0 -112 147 -241
325 -129 179 -240 325 -246 325 -6 0 -96 -38 -200 -84 -104 -46 -192 -81 -196
-77 -8 7 -188 457 -188 470 0 4 20 17 45 29 l46 22 8 -23 c41 -105 144 -362
145 -364 1 -1 87 35 192 81 l189 84 48 -67 c27 -36 121 -166 210 -289 88 -122
163 -222 167 -222 3 0 70 144 148 320 l143 320 -20 117 c-72 416 -251 816
-519 1158 -30 39 -123 138 -206 220 -197 196 -359 318 -583 437 l-93 50 0
-561 0 -561 -35 0 -35 0 0 579 0 578 -121 47 c-364 142 -783 201 -1164 165z
m1433 -1541 c43 -20 94 -78 114 -128 16 -42 12 -134 -9 -181 -56 -127 -221
-177 -340 -103 -126 78 -152 260 -51 363 79 80 183 98 286 49z"/>
</g>
</svg>
